<?xml version="1.0" encoding="UTF-8" standalone="no"?>
<!-- Generator: Adobe Illustrator 12.0.1, SVG Export Plug-In . SVG Version: 6.00 Build 51448)  -->
<svg
   xmlns:dc="http://purl.org/dc/elements/1.1/"
   xmlns:cc="http://creativecommons.org/ns#"
   xmlns:rdf="http://www.w3.org/1999/02/22-rdf-syntax-ns#"
   xmlns:svg="http://www.w3.org/2000/svg"
   xmlns="http://www.w3.org/2000/svg"
   xmlns:sodipodi="http://sodipodi.sourceforge.net/DTD/sodipodi-0.dtd"
   xmlns:inkscape="http://www.inkscape.org/namespaces/inkscape"
   version="1.1"
   id="Layer_1"
   width="157.719"
   height="122.856"
   viewBox="0 0 157.719 122.856"
   style="overflow:visible;enable-background:new 0 0 157.719 122.856;"
   xml:space="preserve"
   sodipodi:version="0.32"
   inkscape:version="0.46"
   sodipodi:docname="Purin num.svg"
   inkscape:output_extension="org.inkscape.output.svg.inkscape"><metadata
   id="metadata90"><rdf:RDF><cc:Work
       rdf:about=""><dc:format>image/svg+xml</dc:format><dc:type
         rdf:resource="http://purl.org/dc/dcmitype/StillImage" /></cc:Work></rdf:RDF></metadata><defs
   id="defs88"><inkscape:perspective
   sodipodi:type="inkscape:persp3d"
   inkscape:vp_x="0 : 61.428001 : 1"
   inkscape:vp_y="0 : 1000 : 0"
   inkscape:vp_z="157.71899 : 61.428001 : 1"
   inkscape:persp3d-origin="78.859497 : 40.952001 : 1"
   id="perspective92" />
	

	

	

	

	

	

	

	

	

	

	

	

	

	
</defs><sodipodi:namedview
   inkscape:window-height="675"
   inkscape:window-width="661"
   inkscape:pageshadow="2"
   inkscape:pageopacity="0.0"
   guidetolerance="10.0"
   gridtolerance="10.0"
   objecttolerance="10.0"
   borderopacity="1.0"
   bordercolor="#666666"
   pagecolor="#ffffff"
   id="base"
   showgrid="false"
   inkscape:zoom="3.4491724"
   inkscape:cx="78.859497"
   inkscape:cy="61.428001"
   inkscape:window-x="220"
   inkscape:window-y="220"
   inkscape:current-layer="Layer_1" />
<path
   id="path5"
   d="M 69.033175,29.778775 L 70.606375,29.660025 C 70.723225,30.424775 70.993975,30.998575 71.418625,31.383325 C 71.843275,31.768075 72.359125,31.959975 72.967125,31.959975 C 73.700525,31.959975 74.316125,31.686375 74.814875,31.140125 C 75.313625,30.593875 75.563475,29.868075 75.563475,28.964625 C 75.563475,28.105825 75.324075,27.427525 74.845275,26.930675 C 74.366475,26.434775 73.732825,26.185875 72.944325,26.185875 C 72.454125,26.185875 72.014275,26.298925 71.626675,26.524075 C 71.239075,26.750175 70.933175,27.042775 70.709925,27.402825 L 69.300125,27.194775 L 70.487625,20.901025 L 76.573325,20.901025 L 76.573325,22.341225 L 71.679875,22.341225 L 71.028175,25.629175 C 71.763475,25.119975 72.534875,24.864425 73.343325,24.864425 C 74.412075,24.864425 75.314575,25.234925 76.049875,25.974975 C 76.785175,26.715975 77.152825,27.667875 77.152825,28.832575 C 77.152825,29.940275 76.829825,30.897875 76.183825,31.704425 C 75.398175,32.696225 74.326575,33.191175 72.968075,33.191175 C 71.853725,33.191175 70.944575,32.879575 70.240625,32.256375 C 69.534775,31.635075 69.132925,30.808575 69.033175,29.778775 z"
   style="fill:#ec1c24" />
<path
   id="path9"
   d="M 73.524775,93.500025 L 73.524775,90.575925 L 68.196225,90.575925 L 68.196225,89.195575 L 73.792675,81.254525 L 75.024825,81.254525 L 75.024825,89.195575 L 76.672125,89.195575 L 76.672125,90.575925 L 75.024825,90.575925 L 75.024825,93.500025 L 73.524775,93.500025 z M 73.524775,89.194625 L 73.524775,83.653275 L 69.673475,89.194625 L 73.524775,89.194625 z"
   style="fill:#ec1c24" />
<path
   id="path13"
   d="M 100.45727,104.33003 L 100.45727,88.001425 L 102.68028,88.001425 L 111.23408,100.81598 L 111.23408,88.001425 L 113.31268,88.001425 L 113.31268,104.33003 L 111.08967,104.33003 L 102.53588,91.515475 L 102.53588,104.33003 L 100.45727,104.33003 L 100.45727,104.33003 z"
   style="fill:#231f20" />
<path
   id="path17"
   d="M 102.89973,116.34088 L 104.39883,116.13283 C 104.57363,116.98403 104.86623,117.59773 105.28043,117.97393 C 105.69652,118.34918 106.20478,118.53728 106.80708,118.53728 C 107.52338,118.53728 108.12473,118.29218 108.61113,117.80388 C 109.09848,117.31368 109.34168,116.70758 109.34168,115.98368 C 109.34168,115.29398 109.11558,114.72588 108.66242,114.27748 C 108.20928,113.82908 107.63263,113.60583 106.93342,113.60583 C 106.64748,113.60583 106.29313,113.66188 105.86848,113.77303 L 106.03567,112.45158 C 106.13638,112.46298 106.21712,112.46868 106.27887,112.46868 C 106.92013,112.46868 107.49583,112.30243 108.00978,111.96898 C 108.52183,111.63553 108.77832,111.12158 108.77832,110.42713 C 108.77832,109.87708 108.59118,109.42108 108.21783,109.06103 C 107.84257,108.70003 107.36093,108.51953 106.76908,108.51953 C 106.18292,108.51953 105.69273,108.70383 105.30228,109.07243 C 104.91183,109.44103 104.65913,109.99393 104.54798,110.73113 L 103.04888,110.46418 C 103.23222,109.45528 103.65212,108.67343 104.30288,108.11958 C 104.95552,107.56477 105.76588,107.28737 106.73583,107.28737 C 107.40557,107.28737 108.02213,107.42988 108.58357,107.71678 C 109.14598,108.00272 109.57632,108.39317 109.87463,108.88718 C 110.17293,109.38118 110.32207,109.90653 110.32207,110.46228 C 110.32207,110.99048 110.18148,111.47118 109.89743,111.90438 C 109.61338,112.33758 109.19253,112.68148 108.63583,112.93798 C 109.35973,113.10518 109.92308,113.45193 110.32588,113.97728 C 110.72962,114.50453 110.93103,115.16193 110.93103,115.95233 C 110.93103,117.02202 110.54153,117.92738 109.76063,118.67028 C 108.97973,119.41318 107.99268,119.78558 106.79948,119.78558 C 105.72313,119.78558 104.82918,119.46543 104.11857,118.82703 C 103.40608,118.18673 103.00043,117.35928 102.89973,116.34088 z"
   style="fill:#ec1c24" />
<path
   id="path21"
   d="M 151.60053,86.169825 L 151.60053,87.610025 L 143.49607,87.610025 C 143.48468,87.248075 143.54263,86.901325 143.67278,86.566925 C 143.87987,86.015925 144.21048,85.472525 144.66838,84.939575 C 145.12438,84.404725 145.78082,83.789125 146.63393,83.089925 C 147.96013,81.993625 148.85978,81.129125 149.33193,80.492625 C 149.80503,79.856125 150.04252,79.252875 150.04252,78.683825 C 150.04252,78.090075 149.82782,77.589425 149.40033,77.179025 C 148.97283,76.770525 148.41518,76.566275 147.72833,76.566275 C 147.00062,76.566275 146.42018,76.784775 145.98413,77.220825 C 145.54808,77.656875 145.32767,78.260125 145.32198,79.029625 L 143.77822,78.866225 C 143.88368,77.711975 144.28268,76.832275 144.97523,76.228075 C 145.66682,75.621025 146.59498,75.318925 147.76253,75.318925 C 148.93863,75.318925 149.87058,75.645725 150.55648,76.296475 C 151.24238,76.947225 151.58628,77.756625 151.58628,78.719925 C 151.58628,79.210125 151.48558,79.691775 151.28418,80.164875 C 151.08372,80.637975 150.74932,81.136725 150.28383,81.660175 C 149.81833,82.183625 149.04503,82.901825 147.96678,83.814775 C 147.06332,84.571925 146.48193,85.085875 146.22448,85.356625 C 145.96703,85.625475 145.75328,85.896225 145.58608,86.168875 L 151.60053,86.168875 L 151.60053,86.169825 z"
   style="fill:#ec1c24" />
<path
   id="path25"
   d="M 133.13632,47.757525 L 133.13632,31.428925 L 135.35933,31.428925 L 143.91313,44.243475 L 143.91313,31.428925 L 145.99173,31.428925 L 145.99173,47.757525 L 143.76873,47.757525 L 135.21493,34.942975 L 135.21493,47.757525 L 133.13632,47.757525 z"
   style="fill:#231f20" />
<path
   id="path29"
   d="M 153.77603,41.202525 L 152.27693,41.202525 L 152.27693,31.625575 C 151.91402,31.970425 151.43808,32.316225 150.84907,32.661075 C 150.26103,33.005925 149.73188,33.265275 149.26353,33.437225 L 149.26353,31.984675 C 150.10522,31.589475 150.84148,31.110675 151.47133,30.548275 C 152.10117,29.985875 152.54767,29.440575 152.80988,28.911425 L 153.77603,28.911425 L 153.77603,41.202525 L 153.77603,41.202525 z"
   style="fill:#ec1c24" />
<path
   id="path33"
   d="M 110.67643,6.114275 L 109.17732,6.233025 C 109.04148,5.643075 108.85242,5.213675 108.60543,4.946725 C 108.19693,4.518275 107.69438,4.303575 107.09683,4.303575 C 106.61423,4.303575 106.19053,4.437525 105.82193,4.705425 C 105.35168,5.050275 104.97928,5.555675 104.70472,6.217825 C 104.43113,6.879975 104.28862,7.824275 104.27818,9.048825 C 104.64012,8.497825 105.08378,8.088375 105.60818,7.821425 C 106.13258,7.554475 106.68263,7.420525 107.25737,7.420525 C 108.26248,7.420525 109.11747,7.789125 109.82333,8.527275 C 110.52918,9.263525 110.88258,10.217325 110.88258,11.386775 C 110.88258,12.155325 110.71537,12.869725 110.38383,13.528075 C 110.05133,14.188325 109.59533,14.693725 109.01582,15.044275 C 108.43632,15.394825 107.77703,15.570575 107.03983,15.570575 C 105.78487,15.570575 104.76077,15.110775 103.96753,14.189275 C 103.17427,13.267775 102.77908,11.749675 102.77908,9.634025 C 102.77908,7.269475 103.21703,5.549025 104.09483,4.474575 C 104.86053,3.538825 105.89033,3.071425 107.18803,3.071425 C 108.15513,3.071425 108.94743,3.341225 109.56493,3.880825 C 110.18243,4.420425 110.55293,5.163325 110.67643,6.114275 z M 104.50142,11.393425 C 104.50142,11.912125 104.61068,12.408025 104.83203,12.882075 C 105.05338,13.356125 105.36118,13.717125 105.75638,13.966025 C 106.14968,14.213975 106.56767,14.338425 107.00848,14.338425 C 107.65068,14.338425 108.19978,14.080975 108.65578,13.568925 C 109.11177,13.054975 109.34072,12.358625 109.34072,11.477975 C 109.34072,10.629625 109.11463,9.961775 108.66527,9.474425 C 108.21403,8.986125 107.64308,8.741975 106.95053,8.741975 C 106.26748,8.741975 105.68892,8.986125 105.21393,9.474425 C 104.73893,9.962725 104.50142,10.602075 104.50142,11.393425 z"
   style="fill:#ec1c24" />
<path
   style="fill:#231f20"
   d="M 75.113175,76.020025 L 74.304725,76.495025 L 73.498175,75.925025 L 73.498175,39.396575 L 74.304725,38.780025 L 75.113175,39.255025 L 75.113175,76.020025 z"
   id="polygon35" />
<path
   style="fill:#231f20"
   d="M 79.150675,42.057523 L 80.765675,42.057523 L 80.765675,73.217522 L 79.150675,73.217522 L 79.150675,42.057523 z"
   id="rect37" />
<path
   style="fill:#231f20"
   d="M 97.533175,88.987525 L 96.724725,90.365025 L 74.210675,77.396575 L 74.304725,76.495025 L 75.113175,76.020025 L 97.533175,88.987525 z"
   id="polygon39" />
<path
   style="fill:#231f20"
   d="M 138.76223,76.020025 L 140.37818,76.970025 L 117.10318,90.412525 L 116.29568,88.987525 L 138.76223,76.020025 z"
   id="polygon41" />
<path
   style="fill:#231f20"
   d="M 133.53723,72.552525 L 134.34567,73.930025 L 114.29973,85.520025 L 113.49223,84.095025 L 133.53723,72.552525 z"
   id="polygon43" />
<path
   style="fill:#231f20"
   d="M 138.76223,49.942525 L 140.37818,49.942525 L 140.37818,76.970025 L 138.76223,76.020025 L 138.76223,49.942525 z"
   id="polygon45" />
<path
   style="fill:#231f20"
   d="M 106.93723,20.871575 L 106.93723,19.020025 L 130.16568,32.415025 L 129.35817,33.840025 L 106.93723,20.871575 z"
   id="polygon47" />
<path
   style="fill:#231f20"
   d="M 106.51067,27.190025 L 107.31723,25.765025 L 127.36222,37.307525 L 126.55473,38.732525 L 106.51067,27.190025 z"
   id="polygon49" />
<path
   style="fill:#231f20"
   d="M 75.113175,39.255025 L 74.304725,38.780025 L 74.210675,37.925025 L 106.93723,19.020025 L 106.93723,20.871575 L 75.113175,39.255025 z"
   id="polygon51" />
<path
   id="path55"
   d="M 31.962275,36.120025 L 31.962275,19.791425 L 34.185275,19.791425 L 42.739075,32.605975 L 42.739075,19.791425 L 44.817675,19.791425 L 44.817675,36.120025 L 42.594675,36.120025 L 34.040875,23.305475 L 34.040875,36.120025 L 31.962275,36.120025 z"
   style="fill:#231f20" />
<path
   id="path59"
   d="M 34.319225,5.527175 L 34.319225,4.086975 L 42.246025,4.086975 L 42.246025,5.252625 C 41.465125,6.081975 40.691825,7.183975 39.925175,8.559575 C 39.158525,9.934225 38.565725,11.349725 38.147725,12.803225 C 37.846575,13.828275 37.653725,14.950225 37.571075,16.170025 L 36.027325,16.170025 C 36.044425,15.205775 36.233475,14.042975 36.596375,12.677825 C 36.958325,11.312675 37.478925,9.997875 38.156275,8.730575 C 38.833625,7.464225 39.554675,6.396425 40.317525,5.527175 L 34.319225,5.527175 z"
   style="fill:#ec1c24" />
<path
   id="path63"
   d="M 6.276175,57.840825 C 5.650125,57.612825 5.187475,57.286975 4.885375,56.864225 C 4.583275,56.441475 4.432225,55.934175 4.432225,55.343275 C 4.432225,54.452175 4.751425,53.703575 5.391725,53.096525 C 6.031075,52.490425 6.882275,52.186425 7.944375,52.186425 C 9.012175,52.186425 9.870975,52.497075 10.521725,53.117425 C 11.172475,53.737775 11.497375,54.493975 11.497375,55.385075 C 11.497375,55.954125 11.348225,56.447175 11.050875,56.868025 C 10.753525,57.287925 10.301325,57.612825 9.695225,57.840825 C 10.447625,58.085925 11.019525,58.481125 11.412825,59.026425 C 11.805175,59.571725 12.001825,60.222475 12.001825,60.979625 C 12.001825,62.025575 11.631325,62.904325 10.892225,63.616825 C 10.152175,64.328375 9.178425,64.684625 7.971925,64.684625 C 6.765425,64.684625 5.791675,64.327425 5.051625,63.612075 C 4.311575,62.896725 3.942975,62.005625 3.942975,60.937825 C 3.942975,60.141725 4.145325,59.475775 4.549075,58.939025 C 4.952825,58.402275 5.528525,58.035575 6.276175,57.840825 z M 5.486725,60.949225 C 5.486725,61.377675 5.586475,61.792825 5.786925,62.192775 C 5.986425,62.593675 6.287575,62.904325 6.690375,63.123775 C 7.092225,63.343225 7.523525,63.453425 7.985225,63.453425 C 8.706275,63.453425 9.299075,63.222575 9.763625,62.760875 C 10.228175,62.299175 10.459025,61.712075 10.459025,60.999575 C 10.459025,60.275675 10.219625,59.678125 9.741775,59.205025 C 9.263925,58.731925 8.661625,58.495375 7.934875,58.495375 C 7.224275,58.495375 6.639075,58.729075 6.177375,59.196475 C 5.715675,59.663875 5.486725,60.248125 5.486725,60.949225 z M 5.976925,55.291025 C 5.976925,55.870525 6.161225,56.343625 6.530775,56.711275 C 6.900325,57.079875 7.383875,57.263225 7.982375,57.263225 C 8.563775,57.263225 9.038775,57.080825 9.405475,56.716025 C 9.772175,56.351225 9.955525,55.904725 9.955525,55.374625 C 9.955525,54.822675 9.766475,54.360025 9.389325,53.982875 C 9.012175,53.606675 8.537175,53.418575 7.966225,53.418575 C 7.389575,53.418575 6.914575,53.601925 6.539325,53.970525 C 6.164075,54.338175 5.976925,54.778025 5.976925,55.291025 z"
   style="fill:#ec1c24" />
<path
   id="path67"
   d="M 31.962275,97.109075 L 31.962275,80.781425 L 34.185275,80.781425 L 42.739075,93.596925 L 42.739075,80.781425 L 44.817675,80.781425 L 44.817675,97.110025 L 42.594675,97.110025 L 34.040875,84.296425 L 34.040875,97.110025 L 31.962275,97.110025 L 31.962275,97.109075 z"
   style="fill:#231f20" />
<path
   id="path71"
   d="M 32.065825,116.06253 L 32.065825,99.733925 L 34.232775,99.733925 L 34.232775,106.44378 L 42.679225,106.44378 L 42.679225,99.733925 L 44.846175,99.733925 L 44.846175,116.06253 L 42.679225,116.06253 L 42.679225,108.37323 L 34.232775,108.37323 L 34.232775,116.06253 L 32.065825,116.06253 z"
   style="fill:#231f20" />
<path
   id="path75"
   d="M 20.567975,98.216775 L 22.008175,98.098025 C 22.130725,98.774425 22.364425,99.265575 22.710225,99.570525 C 23.056025,99.875475 23.498725,100.02748 24.039275,100.02748 C 24.501925,100.02748 24.909475,99.922025 25.260025,99.709225 C 25.610575,99.497375 25.896525,99.214275 26.116925,98.858975 C 26.336375,98.504625 26.522575,98.025825 26.672675,97.422575 C 26.823725,96.820275 26.898775,96.207525 26.898775,95.583375 C 26.898775,95.516875 26.895925,95.416175 26.890225,95.283175 C 26.590025,95.761975 26.178675,96.149575 25.659025,96.448825 C 25.138425,96.746175 24.575075,96.895325 23.968025,96.895325 C 22.955325,96.895325 22.097475,96.528625 21.396375,95.794275 C 20.695275,95.060875 20.344725,94.092825 20.344725,92.890125 C 20.344725,91.650375 20.710475,90.652875 21.441975,89.895725 C 22.173475,89.139525 23.090225,88.761425 24.192225,88.761425 C 24.987375,88.761425 25.716025,88.976125 26.374375,89.404575 C 27.032725,89.833025 27.534325,90.443875 27.877275,91.238075 C 28.219275,92.030375 28.390275,93.178925 28.390275,94.681825 C 28.390275,96.245525 28.220225,97.490975 27.881075,98.418175 C 27.541925,99.345375 27.036525,100.05028 26.365825,100.53478 C 25.695125,101.01928 24.908525,101.26153 24.006975,101.26153 C 23.049375,101.26153 22.267525,100.99553 21.661425,100.46258 C 21.055325,99.929625 20.690525,99.181025 20.567975,98.216775 z M 26.713525,92.820775 C 26.713525,91.959125 26.485525,91.275125 26.029525,90.768775 C 25.573525,90.262425 25.020625,90.008775 24.371775,90.008775 C 23.700125,90.008775 23.118725,90.281425 22.626625,90.825775 C 22.134525,91.371075 21.889425,92.077875 21.889425,92.946175 C 21.889425,93.724225 22.123125,94.356925 22.589575,94.844275 C 23.056025,95.331625 23.636475,95.574825 24.330925,95.574825 C 25.025375,95.574825 25.596325,95.331625 26.042825,94.844275 C 26.489325,94.356925 26.713525,93.683375 26.713525,92.820775 z"
   style="fill:#ec1c24" />
<path
   style="fill:#231f20"
   d="M 47.563175,30.942525 L 48.085675,29.421575 L 74.210675,37.925025 L 74.304725,38.780025 L 73.498175,39.396575 L 47.563175,30.942525 z"
   id="polygon77" />
<path
   style="fill:#231f20"
   d="M 17.258175,57.637525 L 15.263175,57.637525 L 29.988175,37.355025 L 31.317225,38.305025 L 17.258175,57.637525 z"
   id="polygon79" />
<path
   style="fill:#231f20"
   d="M 23.908175,58.112525 L 22.625675,57.162525 L 34.595675,40.680025 L 35.878175,41.630025 L 23.908175,58.112525 z"
   id="polygon81" />
<path
   style="fill:#231f20"
   d="M 32.078175,78.015025 L 30.748175,78.965025 L 15.263175,57.637525 L 17.258175,57.637525 L 32.078175,78.015025 z"
   id="polygon83" />
<path
   style="fill:#231f20"
   d="M 73.498175,75.925025 L 74.304725,76.495025 L 74.210675,77.396575 L 48.038175,85.852525 L 47.515675,84.332525 L 73.498175,75.925025 z"
   id="polygon85" />
</svg>